<?xml version="1.0" ?><svg enable-background="new 0 0 48 48" id="NormalScreen" version="1.1" viewBox="0 0 48 48" xml:space="preserve" xmlns="http://www.w3.org/2000/svg" xmlns:xlink="http://www.w3.org/1999/xlink"><path d="M23,27v9c0,1.1-0.9,2-2,2s-2-0.9-2-2v-4.2l-8.6,8.6C10,40.8,9.5,41,9,41s-1-0.2-1.4-0.6c-0.8-0.8-0.8-2,0-2.8l8.6-8.6H12  c-1.1,0-2-0.9-2-2s0.9-2,2-2h9C22.1,25,23,25.9,23,27z M40.4,7.6c-0.8-0.8-2-0.8-2.8,0L29,16.2V12c0-1.1-0.9-2-2-2s-2,0.9-2,2v9  c0,1.1,0.9,2,2,2h9c1.1,0,2-0.9,2-2s-0.9-2-2-2h-4.2l8.6-8.6C41.2,9.6,41.2,8.4,40.4,7.6z"/></svg>